<svg version="1.2" xmlns="http://www.w3.org/2000/svg" viewBox="0 0 412 412" width="412" height="412">
	<title>favicon</title>
	<style>
		.s0 { fill: #ffffff } 
	</style>
	<path id="Path 0" fill-rule="evenodd" class="s0" d="m158.5 16c1.1 0 4 0.6 6.5 1.4 2.5 0.9 6.8 3.5 9.5 5.9 2.8 2.4 8.8 9.9 13.5 16.7 4.7 6.8 11.4 15 15 18.4 3.6 3.4 9.2 7.9 12.5 10 3.3 2.2 9.2 5.4 13 7.2 3.8 1.8 10.8 4.2 15.5 5.4 5.7 1.5 12.6 2.4 21 2.7 9.3 0.4 14.4 0.1 20-1.1 4.1-0.9 8.6-1.9 10-2.2 2.1-0.4 3.1 0.4 7 5.8 2.5 3.5 6.8 10.8 9.5 16.3 2.8 5.5 6.3 13.8 7.8 18.5 1.4 4.7 3.3 11.7 4.1 15.5 0.8 3.8 2 11.7 2.7 17.5 0.7 6 0.9 15 0.6 21-0.3 5.8-1.1 13.9-1.7 18-0.6 4.1-1.4 8.2-1.7 9-0.3 0.8-0.7 2.8-0.8 4.5-0.2 1.7-2.2 8.6-4.5 15.5-2.2 6.9-6.9 18.3-10.5 25.5-3.5 7.2-9.5 17.7-13.3 23.5-3.7 5.8-10.6 15.2-15.3 21-4.6 5.8-14.3 16.4-21.4 23.5-7.1 7.2-16.8 16.3-21.5 20.1-4.7 3.9-10.8 8.8-13.5 10.9-2.7 2-11.3 7.5-19 12-7.7 4.6-17.2 9.9-21 11.8-3.8 2-13.3 6-21 9-7.7 3-19.6 7.3-26.5 9.5-6.9 2.3-16.6 4.8-21.5 5.7-4.9 0.8-11.3 1.5-14 1.5-2.7 0-7.3-0.4-10-0.9-2.7-0.5-6.3-1.5-8-2.2-1.7-0.7-3.5-1.3-4-1.4-0.5-0.1-3.2-1.7-5.8-3.6-2.7-1.9-6.2-5.4-7.8-7.9-1.6-2.5-3.4-7-4-10-0.6-3-0.8-7.3-0.4-9.5 0.4-2.2 1.3-5.5 2.1-7.3 0.8-1.7 1.7-3.2 2.1-3.2 0.5 0 1.6 1.5 2.5 3.5 1 1.9 3.3 5.1 5 7.1 1.8 2 5.1 4.6 7.3 5.7 3.1 1.6 5.8 2.1 12 2.1 5.9 0 10.2-0.7 16.3-2.7 4.5-1.5 8.5-2.7 8.9-2.6 0.5 0 1-0.4 1.3-0.9 0.3-0.5 3-2.2 6-3.7 3-1.5 10-5.7 15.5-9.4 5.5-3.6 19-13.3 30-21.5 11-8.2 20.1-14.9 20.3-14.8 0.1 0.1 1-0.6 1.9-1.7 1-1 9.2-7.4 18.3-14.3 9.1-6.8 27.7-21 41.5-31.5 13.7-10.4 26.2-20.4 27.7-22.1 1.6-1.8 3.1-4.9 3.4-6.9 0.4-2.1 0.4-5.4 0-7.3-0.3-1.9-2-5.5-3.7-8-1.7-2.5-5.1-5.7-7.7-7.2-2.6-1.4-7.4-3.6-10.7-4.9-3.3-1.2-7.1-2.6-8.5-3.2-1.4-0.6-2.7-1.1-3-1.2-0.3 0-2.3-0.7-4.5-1.4-2.2-0.8-4.9-1.8-6-2.4-1.1-0.6-2.7-1.2-3.5-1.4-0.8-0.1-6.7-2.8-13-5.9-6.3-3-14.5-7.5-18.3-10-3.7-2.4-6.7-4.8-6.7-5.4 0-0.6-0.7-1-1.5-1-0.8 0-4.5-3.3-8.1-7.2-3.6-4-8.6-10.2-10.9-13.8-2.4-3.6-6.4-10.8-8.9-16-2.5-5.2-8.1-18.7-12.4-30-4.4-11.3-9.1-23-10.4-26-1.3-3-3.9-7.6-5.6-10.2-1.8-2.7-5.3-6.2-8-7.8-3.7-2.4-5.8-3-10-3-3.1 0-6.7 0.8-9 1.9-2 1-5.4 3.5-7.5 5.5-2 2-3.9 3.5-4.2 3.4-0.3-0.2-0.3-1.9 0-3.8 0.3-1.9 1.9-5.7 3.4-8.5 1.6-2.7 6.2-8.8 10.3-13.5 4.1-4.7 10.6-11.3 14.6-14.7 4-3.5 9.8-8 12.9-10 3.1-2.1 8-4.6 10.7-5.5 2.8-1 6-1.8 7.1-1.8zm79.1 97.4c8.2 7.9 15.2 14.2 15.7 14 0.4-0.2 4.8-6.5 9.7-13.9 4.9-7.4 9-13.7 9-14 0-0.3-11.1-0.5-24.7-0.5h-24.7zm-116-42.9c2.7 0.3 5 1.5 7.3 3.7 1.8 1.8 5.1 6.9 7.2 11.3 2.1 4.4 7.1 16.3 11 26.5 3.9 10.2 9.7 23.9 12.8 30.5 3.2 6.6 7.7 14.8 10 18.3 2.3 3.4 4.2 6.5 4.2 7 0 0.4-1.9 0.4-4.3 0-2.3-0.4-5.9-0.9-8-1.2-2-0.3-6.3-1.6-9.5-2.8-3.1-1.2-8.4-3.7-11.7-5.6-3.3-2-9.1-6.5-12.9-10.1-3.8-3.6-8.7-9.3-10.9-12.6-2.3-3.3-4.1-6.6-4.2-7.2 0-0.7-0.4-1.3-0.8-1.3-0.4 0-2.1-3.5-3.9-7.7-1.7-4.3-4.1-12.5-5.4-18.3-1.3-5.8-2.4-11.6-2.5-13 0-1.6 1.9-4.6 5.4-8.5 2.9-3.3 6.9-6.8 8.7-7.8 2.4-1.2 4.8-1.6 7.5-1.2zm62.9 107.2c3.9 3.9 11.1 9.7 16.1 12.9 4.9 3.2 13.5 7.9 19 10.5 5.5 2.6 17.2 7.4 26 10.7 8.8 3.2 17.3 6.6 19 7.5 1.6 0.8 4.2 2.8 5.7 4.4 1.6 1.5 2.9 3.5 3.1 4.3 0.2 0.8 0.7 2.4 1.2 3.5 0.5 1.4 0.2 3.1-1.1 5.4-1.1 1.9-2.8 3.9-3.9 4.5-1.1 0.6-2.4 1.6-3 2.2-0.6 0.6-5 4.1-9.8 7.7-4.8 3.7-9.1 6.7-9.5 6.7-0.4 0.1-1.2 0.7-1.7 1.4-0.6 0.7-6.8 5.7-13.8 11-7 5.3-13 9.6-13.2 9.6-0.3 0-1.3 0.8-2.3 1.8-1 0.9-14.5 11.4-30.1 23.2-15.6 11.8-33.8 25.4-40.5 30.2-6.7 4.8-16 11-20.6 13.8-4.7 2.8-12.1 6.5-16.5 8.2-5.3 2-10.6 3.2-15.5 3.5-5.3 0.4-8.6 0.1-11-0.9-2-0.8-4.7-3-6.2-4.9-1.5-1.8-3.2-4.7-3.9-6.4-0.9-2.5-0.8-3.7 0.7-6.9 1-2.2 4.4-6.2 7.4-9 3-2.8 10-8.4 15.5-12.5 5.5-4.1 13.3-10.6 17.3-14.5 4.1-3.9 10.2-10.7 13.7-15.1 3.4-4.4 8.5-11.6 11.2-16 2.7-4.4 6.8-11.6 9-16 2.2-4.4 5.9-12.5 8.2-18 2.3-5.5 6.6-17.5 9.6-26.7 3-9.3 5.5-17.5 5.5-18.3 0-0.8 0.4-1.5 1-1.5 0.5 0 0.8-0.3 0.5-0.7-0.2-0.5 0.7-5.1 2.1-10.3 1.4-5.2 2.8-10.1 3.1-10.9 0.5-1 2.7 0.6 7.7 5.6zm56.1-71.7h18.5l-1.7 2.8c-0.9 1.5-2.4 3.7-3.3 4.9-0.8 1.2-2 2.3-2.5 2.3-0.6 0-3.3-2.2-6-5z"/>
</svg>